<?xml version="1.0" encoding="iso-8859-1"?>
<!-- Generator: Adobe Illustrator 18.0.0, SVG Export Plug-In . SVG Version: 6.00 Build 0)  -->
<!DOCTYPE svg PUBLIC "-//W3C//DTD SVG 1.1//EN" "http://www.w3.org/Graphics/SVG/1.1/DTD/svg11.dtd">
<svg xmlns="http://www.w3.org/2000/svg" xmlns:xlink="http://www.w3.org/1999/xlink" version="1.1" id="Capa_1" x="0px" y="0px" viewBox="0 0 398.085 398.085" style="enable-background:new 0 0 398.085 398.085;" xml:space="preserve" width="512px" height="512px">
<path d="M397.61,225.431c-37.93-93.854-94.732-156.638-103.069-165.557c-0.634-1.348-1.711-2.48-3.132-3.139  c0,0-41.109-19.05-41.165-19.073c-31.552-13.571-67.895-13.932-99.71-0.988l-43.591,20.062c-1.173,0.543-2.106,1.414-2.759,2.456  c-5.376,5.67-64.584,69.424-103.711,166.239c-1.139,2.817-0.173,6.048,2.325,7.778c13.383,9.271,38.112,28.391,38.36,28.582  c1.146,0.887,2.547,1.359,3.978,1.359c0.328,0,0.658-0.024,0.986-0.075c1.76-0.271,3.333-1.251,4.35-2.713l66.951-96.234  l8.19,58.085l-22.328,120.96c-0.53,2.87,0.919,5.742,3.542,7.021c0.847,0.413,19.218,9.248,39.738,9.248  c0.315,0,0.634-0.002,0.95-0.007c0.008,0.132,0.017,0.262,0.025,0.393c0.185,2.907,2.281,5.336,5.13,5.944  c0,0,3.498,0.745,5.186,1.071c13.858,2.688,27.776,4.021,41.627,4.021c31.593-0.001,62.809-6.947,91.956-20.629  c2.675-1.256,4.166-4.157,3.63-7.063l-22.328-120.96l8.144-57.763l66.727,95.912c1.017,1.462,2.59,2.442,4.35,2.713  c0.329,0.051,0.658,0.075,0.986,0.075c1.431,0,2.832-0.473,3.978-1.359c0.248-0.191,24.974-19.309,38.36-28.582  C397.784,231.479,398.749,228.248,397.61,225.431z M254.049,53.75l27.518,12.752l-21.058,149.351h-84.457  c8.352-30.196,19.714-58.696,33.642-83.407L254.049,53.75z M242.152,48.381l-42.733,75.817l-43.767-75.569  C183.223,37.477,214.55,37.418,242.152,48.381z M143.745,54.009l48.425,83.611c-12.123,23.743-22.086,50.331-29.562,78.232h-24.764  L116.787,66.502L143.745,54.009z M43.694,247.342c-7.046-5.396-19.556-14.896-29.214-21.803  c30.289-72.793,72.709-126.807,90.744-147.931l9.53,67.593L43.694,247.342z M146.92,346.442  c-12.148,0.093-23.758-3.672-29.904-6.042l20.591-111.547h21.727C150.213,267.334,145.789,307.812,146.92,346.442z M281.363,340.539  c-38.193,16.826-79.929,21.513-121.036,13.542c-0.031-0.006-0.063-0.012-0.095-0.019c-2.062-40.92,2.452-84.311,12.443-125.21  h15.553l-12.304,94.213c-0.465,3.56,2.044,6.822,5.604,7.287h0c3.56,0.465,6.822-2.044,7.287-5.604l8.617-65.984l12.253,50.793  c0.842,3.49,4.353,5.636,7.843,4.795l0,0c3.49-0.842,5.636-4.353,4.794-7.843l-18.733-77.657h57.158L281.363,340.539z   M354.391,247.342l-70.837-101.819l9.538-67.645c18.165,21.314,60.354,75.181,90.513,147.661  C373.947,232.446,361.437,241.947,354.391,247.342z" fill="#C94B4B"/>
<g>
</g>
<g>
</g>
<g>
</g>
<g>
</g>
<g>
</g>
<g>
</g>
<g>
</g>
<g>
</g>
<g>
</g>
<g>
</g>
<g>
</g>
<g>
</g>
<g>
</g>
<g>
</g>
<g>
</g>
</svg>
