<?xml version="1.0" encoding="iso-8859-1"?>
<!-- Generator: Adobe Illustrator 19.0.0, SVG Export Plug-In . SVG Version: 6.00 Build 0)  -->
<svg version="1.1" id="Layer_1" xmlns="http://www.w3.org/2000/svg" xmlns:xlink="http://www.w3.org/1999/xlink" x="0px" y="0px"
	 viewBox="-49 141 512 512" style="enable-background:new -49 141 512 512;" xml:space="preserve">
<path d="M462.982,238.7c-0.51-43.455-22.748-67.388-62.619-67.388c-15.432,0-30.302,3.592-40.023,6.589
	c0.968-17.762,0.983-28.726,0.983-29.271l0.001-7.604H52.683v7.603c0,0.26,0.026,11.397,1.005,29.281
	c-9.72-2.999-24.604-6.598-40.051-6.598c-39.87,0-62.109,23.932-62.619,67.388c-0.502,42.75,9.248,80.804,28.977,113.107
	c19.371,31.715,44.128,50.826,61.487,61.272c27.803,16.732,55.59,20.244,74.006,20.244c4.54,0,8.914-0.214,13.005-0.636
	c0.271-0.028,0.522-0.06,0.787-0.089c8.904,9.589,18.503,17.27,28.76,22.978c7.561,4.207,12.82,11.544,14.622,19.977
	c-10.195,3.173-17.618,12.698-17.618,23.923c0,11.477,7.763,21.17,18.31,24.12v31.91h-41.142v33.301h-40.6v64.167h230.781v-64.167
	h-40.6v-33.301h-41.142v-31.91c10.548-2.951,18.311-12.643,18.311-24.12c0-11.226-7.423-20.75-17.618-23.923
	c1.802-8.433,7.06-15.77,14.622-19.977c10.232-5.693,19.897-13.415,28.779-22.974c3.147,0.349,7.866,0.72,13.766,0.72
	c0.002,0,0.001,0,0.004,0c18.413,0,46.199-3.514,74.001-20.244c17.358-10.446,42.117-29.556,61.487-61.272
	C453.735,319.504,463.484,281.45,462.982,238.7z M356.334,226.045c10.302-3.429,23.654-6.887,35.614-6.887
	c10.029,0,17.25,2.45,21.463,7.282c4.842,5.554,6.403,14.884,4.637,27.734c-7.353,53.526-30.562,95.307-65.354,117.647
	c-12.119,7.782-25.171,10.997-36.109,12.139C339.723,335.33,350.921,274.314,356.334,226.045z M345.992,156.232
	c-0.068,2.781-0.176,6.277-0.342,10.369H68.387c-0.172-4.091-0.287-7.592-0.361-10.369H345.992z M65.495,279.008
	c7.479,40.115,17.805,74.563,30.693,102.386c0.399,0.864,0.805,1.715,1.209,2.566c-10.934-1.145-23.978-4.359-36.092-12.137
	C26.513,349.483,3.304,307.702-4.05,254.176c-1.765-12.851-0.205-22.182,4.638-27.734c4.213-4.832,11.435-7.281,21.463-7.281
	c11.971,0,25.335,3.463,35.641,6.894C59.533,242.517,62.051,260.536,65.495,279.008z M117.375,418.102
	c-0.612,0.01-1.242,0.015-1.888,0.015c-16.488,0-41.353-3.135-66.164-18.066C23.948,384.78-34.946,338.506-33.776,238.88
	c0.414-35.233,15.923-52.36,47.413-52.36c16.841,0,33.474,5.077,41.077,7.754c0.379,5.101,0.804,10.217,1.274,15.312
	c-10.335-3.036-22.512-5.634-33.936-5.634c-14.618,0-25.696,4.203-32.925,12.493c-7.859,9.013-10.632,22.403-8.242,39.798
	c4.094,29.801,12.65,56.141,25.431,78.287c12.201,21.142,27.938,37.994,46.772,50.086c18.396,11.813,38.293,14.792,52.486,15.077
	c0.048,0.084,0.097,0.164,0.145,0.247c0.778,1.363,1.564,2.703,2.358,4.026c0.247,0.413,0.496,0.823,0.745,1.232
	c0.757,1.244,1.52,2.476,2.291,3.683c0.29,0.454,0.584,0.897,0.876,1.347c0.525,0.807,1.053,1.607,1.585,2.398
	c0.514,0.765,1.03,1.522,1.549,2.271c0.509,0.733,1.019,1.462,1.533,2.181C116.898,417.416,117.134,417.768,117.375,418.102z
	 M307.187,604.015v33.753H106.82v-33.753h25.393h149.581H307.187z M266.587,570.714v18.094H147.42v-18.094h25.935h67.299H266.587z
	 M188.561,555.507v-30.982h36.885v30.982H188.561z M233.915,509.317h-53.822c-5.427,0-9.842-4.415-9.842-9.842
	s4.415-9.842,9.842-9.842h53.822c5.427,0,9.842,4.415,9.842,9.842S239.34,509.317,233.915,509.317z M248.574,442.288
	c-12.051,6.704-20.245,18.611-22.499,32.139h-38.142c-2.255-13.529-10.449-25.435-22.5-32.139
	c-9.436-5.249-17.958-12.266-25.657-20.651l-1.86-2.122c-7.56-8.622-14.686-19.068-21.179-31.045l-1.989-3.671
	C82.051,321.621,72.16,230.311,69.179,181.807h275.705c-0.127,2.11-0.266,4.289-0.42,6.552c-0.007,0.105-0.015,0.213-0.022,0.318
	c-0.168,2.452-0.348,4.911-0.539,7.372c-0.005,0.072-0.011,0.144-0.016,0.217c-0.608,7.8-1.328,15.629-2.149,23.365l-0.497,4.678
	c-5.525,49.528-17.194,112.625-41.801,160.153l-2.173,4.007c-4.835,8.916-10.02,16.982-15.476,24.083
	c-0.084,0.109-0.168,0.218-0.252,0.327c-0.748,0.968-1.502,1.912-2.26,2.843c-0.186,0.227-0.369,0.458-0.556,0.684
	c-0.833,1.012-1.673,2.002-2.517,2.968c-0.041,0.046-0.079,0.094-0.12,0.14C267.607,429.186,258.351,436.848,248.574,442.288z
	 M364.676,400.05c-24.813,14.932-49.673,18.066-66.16,18.066c-0.001,0-0.003,0-0.004,0c-0.647,0-1.276-0.005-1.889-0.015
	c0.01-0.014,0.02-0.029,0.03-0.043c0.987-1.362,1.959-2.744,2.916-4.145c0.117-0.171,0.232-0.346,0.349-0.517
	c0.809-1.192,1.606-2.4,2.394-3.62c0.203-0.313,0.406-0.627,0.607-0.942c0.872-1.369,1.735-2.747,2.581-4.149
	c0.133-0.219,0.262-0.444,0.394-0.665c0.693-1.158,1.378-2.327,2.054-3.507c0.158-0.276,0.321-0.54,0.479-0.818
	c14.193-0.285,34.09-3.264,52.486-15.077c18.834-12.094,34.571-28.946,46.772-50.086c12.78-22.146,21.336-48.486,25.431-78.287
	c2.388-17.396-0.384-30.786-8.242-39.798c-7.229-8.291-18.307-12.494-32.925-12.494c-11.423,0-23.602,2.596-33.936,5.633
	c0.478-5.195,0.89-10.178,1.242-14.914c0.01-0.132,0.021-0.265,0.031-0.396c7.605-2.679,24.237-7.754,41.077-7.754
	c31.49,0,46.999,17.127,47.414,52.358C448.945,338.506,390.052,384.779,364.676,400.05z"/>
<path d="M130.656,395.604c4.336,6.583,8.996,12.564,13.851,17.776l11.128-10.366c-4.278-4.591-8.409-9.9-12.28-15.777
	L130.656,395.604z"/>
<path d="M110.716,302.922l-14.826,3.382c7.292,31.965,17.027,58.799,28.933,79.756l13.222-7.512
	C126.872,358.882,117.677,333.438,110.716,302.922z"/>
<polygon points="394.655,459.301 381.818,459.309 381.809,446.473 366.602,446.483 366.611,459.32 353.774,459.329 353.784,474.536 
	366.621,474.527 366.63,487.364 381.837,487.354 381.828,474.516 394.665,474.508 "/>
<polygon points="63.769,538.267 52.997,538.278 52.985,527.505 37.779,527.521 37.79,538.294 27.016,538.305 27.032,553.512 
	37.805,553.5 37.816,564.274 53.023,564.259 53.012,553.485 63.785,553.474 "/>
<rect x="-0.156" y="429.16" width="14.345" height="15.207"/>
<rect x="92.039" y="474.152" width="14.345" height="15.207"/>
<rect x="323.254" y="519.904" width="14.345" height="15.207"/>
</svg>
