<?xml version="1.0" encoding="utf-8"?>
<!-- Generator: Adobe Illustrator 19.0.0, SVG Export Plug-In . SVG Version: 6.00 Build 0)  -->
<svg version="1.1" id="Capa_1" xmlns="http://www.w3.org/2000/svg" xmlns:xlink="http://www.w3.org/1999/xlink" x="0px" y="0px"
	 viewBox="-49 141 512 512" style="enable-background:new -49 141 512 512;" xml:space="preserve">
<g>
	<path d="M363.8,504.9c-22.6-7-52.2-10.9-83.5-10.9s-61,3.9-83.5,10.9c-37.1,11.5-44.9,28.8-44.9,41.2c0,12.5,7.8,29.7,44.9,41.2
		c14,4.4,30.9,7.5,49.3,9.3l-25.9,25.9c-6.9,6.9-6.9,18.2,0,25.1c3.4,3.4,7.8,5.2,12.5,5.2c4.7,0,9.2-1.8,12.6-5.2l34.4-34.4
		l22.3,22.3c3.4,3.4,7.8,5.2,12.5,5.2c4.7,0,9.2-1.8,12.5-5.2c6.9-6.9,6.9-18.2,0-25.1l-13.7-13.7c18.8-1.7,36-4.9,50.3-9.4
		c37.1-11.5,44.9-28.8,44.9-41.2S400.9,516.5,363.8,504.9z M199.8,577.7c-24.7-7.7-37.7-18.5-37.7-31.5c0-12.9,13-23.8,37.7-31.5
		c21.6-6.7,50.2-10.4,80.5-10.4c30.3,0,58.9,3.7,80.5,10.4h0c13.2,4.1,23.1,9.1,29.4,14.9l-11.6,9.8c-4-3.2-11.8-7.5-26.4-11.6
		c-19.7-5.5-45.2-8.5-72-8.5c-26.7,0-52.3,3-72,8.5c-23.1,6.5-29,13.6-30.3,15.6c-1,1.6-1,3.7,0,5.4c1.3,2,7.2,9.2,30.3,15.6
		c12.9,3.6,28.4,6.2,45.1,7.5v15.1C233.2,585.5,214.8,582.3,199.8,577.7z M370.4,546.2c-3.4,2.2-9.7,5.3-20.9,8.5
		c-12.2,3.4-27.1,5.9-43.2,7.1c-2.1-5.9-7.7-10.1-14.3-10.1h-23.2c-6.6,0-12.2,4.2-14.3,10.1c-16.1-1.3-31-3.7-43.2-7.1
		c-11.3-3.2-17.6-6.3-20.9-8.5c3.4-2.2,9.7-5.3,20.9-8.5c18.8-5.3,43.4-8.2,69.2-8.2s50.4,2.9,69.2,8.2
		C360.8,540.9,367.1,544,370.4,546.2z M238.1,640.4c-1.4,1.4-3.3,2.2-5.3,2.2s-3.9-0.8-5.3-2.2c-2.9-2.9-2.9-7.7,0-10.6l28.4-28.4
		l0,0c2.7,4.2,7.4,7,12.8,7h1.5L238.1,640.4z M268.7,598.2L268.7,598.2c-2.6,0-4.7-1.9-5-4.4l12.4-12.4c2-2,2-5.2,0-7.2
		c-2-2-5.2-2-7.2,0l-5.2,5.2v-12.1v-0.3c0-2.8,2.2-5,5-5h23.2c2.8,0,5,2.2,5,5v0.3v25.3v0.6c0,2.8-2.2,5-5,5H268.7L268.7,598.2z
		 M320,617.7c2.9,2.9,2.9,7.7,0,10.6c-1.4,1.4-3.3,2.2-5.3,2.2c-2,0-3.9-0.8-5.3-2.2l-19.9-19.9h2.5c5.1,0,9.6-2.5,12.4-6.4l0,0
		L320,617.7z M360.8,577.7c-15,4.7-33.4,7.9-53.6,9.4V572c16.7-1.3,32.3-3.9,45.1-7.5c17.4-4.9,25.1-10.1,28.3-13.3l15.9-13.5
		c1.3,2.7,2,5.5,2,8.4C398.5,559.1,385.4,570,360.8,577.7z"/>
	<path d="M136.1,546.2c0-0.3,0-0.7,0-1h-29.7v-50.6h17h54.5h1c4.1-1.7,8.5-3.3,13.2-4.8c10.2-3.2,21.7-5.7,34.1-7.6h-48.3h-48.3
		v-7.6c0-10,8.1-18.1,18.1-18.1h42h34.8h42c10,0,18.1,8.1,18.1,18.1v3.7c4.2,0,8.3,0.2,12.4,0.3v-4c0-16.8-13.6-30.5-30.5-30.5
		h-35.8l0-17.9c0-15.2,8-29.4,20.8-37c13.2-7.8,25.4-18.9,36.2-32.8l5.1-1.1c2.2-0.5,22.1-5.1,44.7-16.1
		c30.4-14.8,51.2-33.8,61.7-56.5c13.9-29.9,13.4-60.3-1.3-83.4c-12.9-20.2-34.7-31.9-61.7-33.2v-18.8c0-3.4-2.8-6.2-6.2-6.2h-44.7
		c-3.4,0-6.2,2.8-6.2,6.2c0,3.4,2.8,6.2,6.2,6.2h38.5v39.4c0,83.4-31.6,158-78.6,185.7c-16.7,9.8-27,28.1-27,47.7l0,17.9h-22.3
		l0-17.9c0-19.6-10.3-37.9-27-47.7c-47-27.6-78.6-102.2-78.6-185.7v-39.4h165.9c3.4,0,6.2-2.8,6.2-6.2s-2.8-6.2-6.2-6.2H84.1
		c-3.4,0-6.2,2.8-6.2,6.2v18.8c-27.1,1.4-48.8,13.1-61.7,33.2C1.5,222.5,1,252.9,14.8,282.8c10.5,22.7,31.3,41.7,61.8,56.5
		c22.7,11,42.5,15.6,44.7,16.1l5.1,1.1c10.8,14,23,25,36.2,32.8c12.9,7.6,20.9,21.7,20.8,37l0,17.9h-35.8
		c-16.8,0-30.5,13.6-30.5,30.5v7.6h-17c-3.4,0-6.2,2.8-6.2,6.2v63c0,3.4,2.8,6.2,6.2,6.2h37.3C136.6,553.9,136.1,550.1,136.1,546.2z
		 M335.9,203.5c13.9,1.1,24.6,6.7,30.5,16c7.8,12.2,7.4,29.5-1,47.6c-8.8,18.9-29.8,31.9-45.9,39.5c-1.6,0.8-3.2,1.5-4.9,2.2
		C327.4,277.4,334.8,241.3,335.9,203.5z M307.2,325.1c6.1-2.2,12-4.6,17.6-7.3c18-8.5,41.6-23.2,51.9-45.5
		c10.2-22,10.3-43.7,0.2-59.5c-8.2-12.9-22.6-20.4-40.8-21.7v-12.5c22.7,1.3,40.7,11,51.3,27.5c12.4,19.4,12.6,45.5,0.5,71.5
		c-11.6,25-36.8,41.3-55.9,50.6c-13.4,6.5-25.9,10.7-33.7,12.9C301.4,336,304.3,330.7,307.2,325.1z M99.5,308.8
		c-1.7-0.7-3.3-1.5-4.9-2.2C78.4,299,57.4,286,48.6,267.1c-8.4-18.1-8.8-35.5-1-47.6c5.9-9.3,16.6-14.8,30.5-16
		C79.2,241.3,86.6,277.4,99.5,308.8z M82,328.1c-19.1-9.3-44.3-25.6-55.9-50.6c-12.1-26-11.9-52,0.6-71.5
		c10.5-16.5,28.6-26.1,51.3-27.5v12.5c-18.2,1.3-32.6,8.8-40.8,21.7c-10.1,15.8-10,37.5,0.2,59.5c10.3,22.3,33.9,37,51.9,45.5
		c5.6,2.6,11.5,5.1,17.6,7.3c2.8,5.6,5.8,10.9,8.9,16C107.9,338.8,95.4,334.7,82,328.1z"/>
</g>
</svg>
