<?xml version="1.0" encoding="iso-8859-1"?>
<!-- Generator: Adobe Illustrator 19.0.0, SVG Export Plug-In . SVG Version: 6.00 Build 0)  -->
<svg version="1.1" id="Layer_1" xmlns="http://www.w3.org/2000/svg" xmlns:xlink="http://www.w3.org/1999/xlink" x="0px" y="0px"
	 viewBox="-49 141 512 512" style="enable-background:new -49 141 512 512;" xml:space="preserve">
<path d="M138.528,454.539c-35.395,35.396-35.395,92.987-0.001,128.381c17.121,17.12,39.918,26.549,64.19,26.549
	c24.272,0,47.069-9.429,64.189-26.549c17.121-17.121,26.549-39.917,26.549-64.189c0-24.274-9.428-47.069-26.549-64.19
	c-17.121-17.12-39.917-26.549-64.19-26.549C178.444,427.991,155.647,437.419,138.528,454.539z M277.146,518.731
	c0,19.915-7.732,38.616-21.773,52.656c-14.041,14.041-32.74,21.773-52.657,21.773c-19.917,0-38.618-7.732-52.657-21.773
	c-29.035-29.034-29.035-76.278,0-105.313c14.041-14.041,32.741-21.772,52.656-21.772c19.916,0,38.616,7.732,52.657,21.773
	C269.413,480.113,277.146,498.814,277.146,518.731z"/>
<path d="M405.368,272.068l-67.173-67.173c0-0.001-0.001-0.001-0.002-0.002l-61.507-61.506c-3.185-3.184-8.349-3.184-11.532,0
	L46.264,362.277c-52.352,52.353-52.352,137.536,0,189.888l61.508,61.508C133.132,639.033,166.85,653,202.716,653
	c35.864,0,69.583-13.967,94.943-39.326c52.351-52.353,52.351-137.535,0-189.888l-16.239-16.238l123.948-123.944
	C408.553,280.417,408.553,275.254,405.368,272.068z M64.528,367.08l29.582-29.583l27.584,27.584l-30.546,30.547l-27.584-27.584
	L64.528,367.08z M83.277,458.112c-12.2,24.534-17.147,52.748-13.351,79.918c0.652,4.67,1.563,9.305,2.722,13.875
	c0.092,0.367,0.186,0.735,0.283,1.103c0.311,1.186,0.635,2.369,0.98,3.548c0.025,0.087,0.047,0.175,0.072,0.261l-16.186-16.186
	c-44.054-44.054-45.904-114.567-5.564-160.851l33.148,33.148c1.592,1.592,3.68,2.388,5.766,2.388c2.087,0,4.174-0.796,5.766-2.388
	l42.079-42.079c1.53-1.53,2.389-3.603,2.389-5.767c0-2.164-0.86-4.236-2.389-5.767l-33.35-33.351L270.92,160.687l49.975,49.976
	c-13.734,13.734-27.468,27.468-41.202,41.202c-28.48,28.48-56.962,56.962-85.442,85.442c-24.215,24.215-48.43,48.43-72.644,72.644
	c-12.983,12.983-25.841,25.637-34.969,41.823C85.463,453.857,84.342,455.97,83.277,458.112z M264.122,401.781
	c-1.53,1.53-2.389,3.603-2.389,5.767c0,2.164,0.859,4.236,2.389,5.767l22.005,22.004c45.993,45.993,45.993,120.828,0,166.821
	c-22.28,22.28-51.902,34.55-83.411,34.55c-31.51,0-61.132-12.269-83.411-34.55c-5.75-5.749-10.78-11.949-15.091-18.487
	c-1.077-1.634-2.111-3.29-3.099-4.965c-26.995-45.756-19.33-105.849,18.19-143.369l213.124-213.125l55.639,55.641L264.122,401.781z"
	/>
</svg>
