<?xml version="1.0" encoding="iso-8859-1"?>
<!-- Generator: Adobe Illustrator 19.0.0, SVG Export Plug-In . SVG Version: 6.00 Build 0)  -->
<svg version="1.1" id="Layer_1" xmlns="http://www.w3.org/2000/svg" xmlns:xlink="http://www.w3.org/1999/xlink" x="0px" y="0px"
	 viewBox="-49 141 512 512" style="enable-background:new -49 141 512 512;" xml:space="preserve">
<g>
	<path d="M396.936,141.126L21.189,141C-17.509,141-49,172.491-49,211.189V653h388.127V318.839l17.112-11.407l32.44,16.215
		l33.034-16.512L463,327.781V211.189C463,173.872,433.729,143.261,396.936,141.126L396.936,141.126z M322.615,211.189V636.48H-32.48
		V211.189c0-29.596,24.075-53.669,53.669-53.669H347.62C332.335,170.408,322.615,189.69,322.615,211.189L322.615,211.189z
		 M446.48,301.057l-24.775-12.389l-33.034,16.52l-33.615-16.817l-15.929,10.611v-87.793c0-29.596,24.081-53.669,53.678-53.669
		c29.594,0,53.675,24.073,53.675,53.669V301.057z M446.48,301.057"/>
	<path d="M196.318,320.261l35.453-35.456l35.456,35.456l11.678-11.686l-35.456-35.445l35.456-35.456l-11.678-11.675l-35.456,35.453
		l-35.453-35.453l-11.678,11.675l35.456,35.456l-35.456,35.445L196.318,320.261z M196.318,320.261"/>
	<path d="M105.824,245.585L93.47,234.601l-58.954,66.328l-10.583-15.868l-13.743,9.17l22.456,33.676L105.824,245.585z
		 M105.824,245.585"/>
	<rect x="-7.711" y="347.451" width="132.13" height="16.52"/>
	<rect x="-7.711" y="388.74" width="132.13" height="16.52"/>
	<rect x="-7.711" y="430.029" width="132.13" height="16.52"/>
	<rect x="-7.711" y="471.318" width="132.13" height="16.52"/>
	<rect x="-7.711" y="512.613" width="132.13" height="16.512"/>
	<rect x="-7.711" y="553.902" width="66.066" height="16.512"/>
	<rect x="165.708" y="347.451" width="132.13" height="16.52"/>
	<rect x="165.708" y="388.74" width="132.13" height="16.52"/>
	<rect x="165.708" y="430.029" width="132.13" height="16.52"/>
	<rect x="165.708" y="471.318" width="99.098" height="16.52"/>
</g>
</svg>
