<?xml version="1.0" encoding="utf-8"?>
<!-- Generator: Adobe Illustrator 19.0.0, SVG Export Plug-In . SVG Version: 6.00 Build 0)  -->
<svg version="1.1" id="Layer_1" xmlns="http://www.w3.org/2000/svg" xmlns:xlink="http://www.w3.org/1999/xlink" x="0px" y="0px"
	 viewBox="146.4 346 349.1 60" style="enable-background:new 146.4 346 349.1 60;" xml:space="preserve">
<style type="text/css">
	.st0{enable-background:new    ;}
	.st1{fill:#C94B4B;}
</style>
<g class="st0">
	<path class="st1" d="M204.8,346v1.6c-15.7,0-28.4,12.7-28.4,28.4c0,16.6-13.4,30-30,30v-1.6c15.7,0,28.4-12.7,28.4-28.4
		C174.8,359.4,188.2,346,204.8,346z"/>
	<path class="st1" d="M209.6,346H225c8.6,0,15.4,6.9,15.4,15.4c0,8.6-6.9,15.4-15.4,15.4h-12.2v-1.6H225c7.6,0,13.8-6.2,13.8-13.8
		c0-7.6-6.2-13.8-13.8-13.8h-13.8V406h-1.6L209.6,346L209.6,346z"/>
	<path class="st1" d="M273.2,346c16.6,0,30,13.4,30,30s-13.4,30-30,30s-30-13.4-30-30S256.6,346,273.2,346z M273.2,404.4
		c15.7,0,28.4-12.7,28.4-28.4c0-15.7-12.7-28.4-28.4-28.4c-15.7,0-28.4,12.7-28.4,28.4C244.8,391.7,257.5,404.4,273.2,404.4z
		 M273.2,375.2c0.5,0,0.8,0.3,0.8,0.8s-0.3,0.8-0.8,0.8s-0.8-0.3-0.8-0.8C272.4,375.5,272.7,375.2,273.2,375.2z"/>
	<path class="st1" d="M308,346h15.4c8.6,0,15.4,6.9,15.4,15.4c0,8.6-6.9,15.4-15.4,15.4H322l16.9,29.2H337l-16.9-29.2v-1.6h3.3
		c7.6,0,13.8-6.2,13.8-13.8c0-7.6-6.2-13.8-13.8-13.8h-13.8V406H308V346z"/>
	<path class="st1" d="M339.5,346h30.8v1.6h-14.6V406h-1.6v-58.4h-14.6L339.5,346L339.5,346z"/>
	<path class="st1" d="M364.3,376c0-16.6,13.4-30,30-30s30,13.4,30,30v30h-1.6v-30c0-15.7-12.7-28.4-28.4-28.4
		c-15.7,0-28.4,12.7-28.4,28.4c0,15.7,12.7,28.4,28.4,28.4h26.8v1.6h-26.8C377.8,406,364.3,392.6,364.3,376z M394.3,375.2
		c0.5,0,0.8,0.3,0.8,0.8s-0.3,0.8-0.8,0.8s-0.8-0.3-0.8-0.8S393.8,375.2,394.3,375.2z"/>
	<path class="st1" d="M429.1,346h15.4c8.6,0,15.4,6.9,15.4,15.4c0,8.6-6.9,15.4-15.4,15.4h-12.2v-1.6h12.2c7.6,0,13.8-6.2,13.8-13.8
		c0-7.6-6.2-13.8-13.8-13.8h-13.8V406h-1.6V346z"/>
	<path class="st1" d="M464.7,346h15.4c8.6,0,15.4,6.9,15.4,15.4c0,8.6-6.9,15.4-15.4,15.4h-12.2v-1.6h12.2c7.6,0,13.8-6.2,13.8-13.8
		c0-7.6-6.2-13.8-13.8-13.8h-13.8V406h-1.6V346z"/>
</g>
</svg>
